<svg xmlns="http://www.w3.org/2000/svg" viewBox="0 0 137.78 117.48"><defs><style>.cls-1{isolation:isolate;}.cls-2{fill:#b47f60;}.cls-3{fill:#b22615;}.cls-4{fill:#e2c6d5;}.cls-4,.cls-6{mix-blend-mode:multiply;}.cls-5{fill:#ddb790;}.cls-6{fill:#ebdfde;}.cls-7{fill:#891f0b;}.cls-8{fill:#ca2a1a;}.cls-9{fill:#c39979;}.cls-10{fill:#f9c6bb;}.cls-10,.cls-11{mix-blend-mode:soft-light;}.cls-11{fill:#f6ae9c;}.cls-12{fill:#5b230a;}</style></defs><g class="cls-1"><g id="Calque_1" data-name="Calque 1"><path class="cls-2" d="M95.27,147.22c0,23.05-16.62,54.39-16.62,54.39h-7c-15.52,0-28.1-24.35-28.1-54.39s12.58-54.4,28.1-54.4h7S95.27,122.67,95.27,147.22Z" transform="translate(-36.44 -90.13)"/><path class="cls-3" d="M77.25,201.61H142.6c15.52,0,28.11-24.35,28.11-54.39s-12.59-54.4-28.11-54.4H77.25Z" transform="translate(-36.44 -90.13)"/><path class="cls-4" d="M161.77,136.76c-1.7,5.81-2.66,11.82-4,17.72-1,4.35-2.17,8.69-5.26,12a3.59,3.59,0,0,1-5.32-.27c-1.25,2-2.79,3.69-5.19,3.37a5.74,5.74,0,0,1-3.6-1.66,5.6,5.6,0,0,1-5,3.25,4.05,4.05,0,0,1-4.25-2.44c0,.16-.08.31-.13.45a9.71,9.71,0,0,1-4.21,5.35c-1.54.93-3.38-3.23-3.19-5.18,2.34-23.8-4.35-43.7-5.33-48.33-.09-.41,0,38-.12,37.63a10.05,10.05,0,0,1-.64,1.16c-2.47,3.79-2.92,5.72-5.59,1.49-1.45-2.31-5.33-30.84-5-33.41-.19.36-4.46,20.49-.55,26.07,1.36,1.94-2.09,4.27-3.32,6.31-2.36,3.92-5.52,8.07-10.36,8.75-5.87.81-9.8-3.75-12.29-8.49l-1.16-2.21v43.26H142.6c15.52,0,28.11-24.35,28.11-54.39a98.86,98.86,0,0,0-2.58-22.77A39,39,0,0,0,161.77,136.76Z" transform="translate(-36.44 -90.13)"/><path class="cls-4" d="M165.05,168.77c-2.41,3.43-4.78,7-8,9.75a4.47,4.47,0,0,1-2.1,1,1.79,1.79,0,0,1-.5.93,9.87,9.87,0,0,1-1.14,1.86,3.65,3.65,0,0,1-4.25,1.56,10.82,10.82,0,0,1-1.08,1.44c-1.73,1.91-4.36,1-5.7-.74A54.21,54.21,0,0,1,137,187a6.58,6.58,0,0,1-4.69-.61c-1.7,1.07-3.41,1.68-5.54.33a9.22,9.22,0,0,1-1.27-1,5.47,5.47,0,0,1-3.42,1.06,6.5,6.5,0,0,1-4.2-2.14c-.23-.25-1-1-1.57-1.67a7.67,7.67,0,0,1-4.56,1.92,7.57,7.57,0,0,1-6.09-3.3,16.53,16.53,0,0,1-1.86-3.46,11.26,11.26,0,0,1-.76,2c-4.09,8-13.06,3.45-18-1A53.35,53.35,0,0,1,77.25,171v30.64H142.6c12.94,0,23.83-16.94,27.1-40C168.22,164.06,166.68,166.45,165.05,168.77Z" transform="translate(-36.44 -90.13)"/><path class="cls-5" d="M106.75,147.22c0,30-12.58,54.39-28.1,54.39s-28.1-24.35-28.1-54.39,12.58-54.4,28.1-54.4S106.75,117.18,106.75,147.22Z" transform="translate(-36.44 -90.13)"/><path class="cls-6" d="M86.91,95.21c5.16,9.87,8.36,23.56,8.36,38.71,0,30-12.58,54.39-28.1,54.39a16.08,16.08,0,0,1-8.26-2.39c5.08,9.7,12,15.69,19.74,15.69,15.52,0,28.1-24.35,28.1-54.39C106.75,122.74,98.4,102,86.91,95.21Z" transform="translate(-36.44 -90.13)"/><path class="cls-7" d="M78.13,92.82c-.74.05-1.47.07-2.2.17,15.11,2.1,27,25.57,27,54.23s-11.92,52.12-27,54.22c.73.1,1.46.12,2.2.17,17.14,1.08,29.22-24.35,29.22-54.39S95.27,91.87,78.13,92.82Z" transform="translate(-36.44 -90.13)"/><path class="cls-8" d="M79.63,93S102,104.11,102,146.26c0,46-22.35,55.18-22.35,55.18s25.3-8,25.3-54.22C104.93,104.78,79.63,93,79.63,93Z" transform="translate(-36.44 -90.13)"/><path class="cls-9" d="M90.62,90.13a8.26,8.26,0,0,0-6.08,2.69h7.22c10.31,8.68,20.32,29.76,20.32,54.4s-10,45.71-20.32,54.39l-5.86,0s1.78,3,4.72,2.66c7.95-.3,25.69-15.66,25.69-57.08C116.31,105.24,96.33,90.13,90.62,90.13Z" transform="translate(-36.44 -90.13)"/><path class="cls-5" d="M95.67,90.13h-5C103.05,95.19,115,119.44,115,147.22s-11.66,51.92-24.39,57.08h5c8.06,0,23.57-25.56,23.57-57.08S103.73,90.13,95.67,90.13Z" transform="translate(-36.44 -90.13)"/><path class="cls-9" d="M144.1,90.13A8.25,8.25,0,0,0,138,92.82h7.21c10.32,8.68,20.32,29.76,20.32,54.4s-10,45.71-20.32,54.39l-5.85,0s1.78,3,4.71,2.66c8-.3,25.69-15.66,25.69-57.08C169.79,105.24,149.82,90.13,144.1,90.13Z" transform="translate(-36.44 -90.13)"/><path class="cls-5" d="M149.16,90.13H144.1c12.44,5.06,24.4,29.31,24.4,57.09s-11.66,51.92-24.4,57.08h5.06c8.06,0,23.57-25.56,23.57-57.08S157.22,90.13,149.16,90.13Z" transform="translate(-36.44 -90.13)"/><path class="cls-5" d="M47.38,156.68a1.29,1.29,0,1,1-1.29-1.28A1.29,1.29,0,0,1,47.38,156.68Z" transform="translate(-36.44 -90.13)"/><path class="cls-5" d="M51.83,177.68a1.29,1.29,0,1,1-1.28-1.28A1.28,1.28,0,0,1,51.83,177.68Z" transform="translate(-36.44 -90.13)"/><path class="cls-5" d="M59.69,192.19a1.29,1.29,0,1,1-1.28-1.28A1.29,1.29,0,0,1,59.69,192.19Z" transform="translate(-36.44 -90.13)"/><path class="cls-5" d="M48.66,132.74a1.29,1.29,0,0,1-2.57,0,1.29,1.29,0,1,1,2.57,0Z" transform="translate(-36.44 -90.13)"/><path class="cls-5" d="M55.46,109.62a1.29,1.29,0,1,1-1.28-1.28A1.28,1.28,0,0,1,55.46,109.62Z" transform="translate(-36.44 -90.13)"/><path class="cls-5" d="M104.93,157.59a1.29,1.29,0,1,0,1.29-1.28A1.29,1.29,0,0,0,104.93,157.59Z" transform="translate(-36.44 -90.13)"/><path class="cls-5" d="M100.47,178.59a1.29,1.29,0,1,0,1.29-1.28A1.28,1.28,0,0,0,100.47,178.59Z" transform="translate(-36.44 -90.13)"/><path class="cls-5" d="M92.62,193.1a1.28,1.28,0,1,0,1.28-1.29A1.28,1.28,0,0,0,92.62,193.1Z" transform="translate(-36.44 -90.13)"/><path class="cls-5" d="M103.65,133.64a1.29,1.29,0,1,0,1.28-1.28A1.28,1.28,0,0,0,103.65,133.64Z" transform="translate(-36.44 -90.13)"/><path class="cls-5" d="M96.85,110.53a1.29,1.29,0,0,0,2.57,0,1.29,1.29,0,1,0-2.57,0Z" transform="translate(-36.44 -90.13)"/><path class="cls-2" d="M120.28,149.6a1.19,1.19,0,0,1-1.19,1.19h-4a1.19,1.19,0,0,1-1.19-1.19h0a1.19,1.19,0,0,1,1.19-1.19h4a1.19,1.19,0,0,1,1.19,1.19Z" transform="translate(-36.44 -90.13)"/><path class="cls-2" d="M113.84,182.24a1.19,1.19,0,0,1-1.19,1.19h-4a1.19,1.19,0,0,1-1.19-1.19h0a1.19,1.19,0,0,1,1.19-1.19h4a1.19,1.19,0,0,1,1.19,1.19Z" transform="translate(-36.44 -90.13)"/><path class="cls-2" d="M116.31,121.05a1.2,1.2,0,0,1-1.19,1.19h-4a1.19,1.19,0,0,1-1.19-1.19h0a1.19,1.19,0,0,1,1.19-1.2h4a1.2,1.2,0,0,1,1.19,1.2Z" transform="translate(-36.44 -90.13)"/><path class="cls-2" d="M106.82,99.52a1.19,1.19,0,0,1-1.19,1.19h-4a1.2,1.2,0,0,1-1.19-1.19h0a1.2,1.2,0,0,1,1.19-1.2h4a1.19,1.19,0,0,1,1.19,1.2Z" transform="translate(-36.44 -90.13)"/><path class="cls-2" d="M103.19,200.25a1.19,1.19,0,0,1-1.19,1.19H98a1.19,1.19,0,0,1-1.19-1.19h0A1.19,1.19,0,0,1,98,199.06h4a1.19,1.19,0,0,1,1.19,1.19Z" transform="translate(-36.44 -90.13)"/><path class="cls-2" d="M174.22,149.6a1.19,1.19,0,0,1-1.19,1.19h-4a1.19,1.19,0,0,1-1.19-1.19h0a1.19,1.19,0,0,1,1.19-1.19h4a1.19,1.19,0,0,1,1.19,1.19Z" transform="translate(-36.44 -90.13)"/><path class="cls-2" d="M167.79,182.24a1.19,1.19,0,0,1-1.2,1.19h-4a1.19,1.19,0,0,1-1.19-1.19h0a1.19,1.19,0,0,1,1.19-1.19h4a1.19,1.19,0,0,1,1.2,1.19Z" transform="translate(-36.44 -90.13)"/><path class="cls-2" d="M170.25,121.05a1.2,1.2,0,0,1-1.19,1.19h-4a1.19,1.19,0,0,1-1.19-1.19h0a1.19,1.19,0,0,1,1.19-1.2h4a1.2,1.2,0,0,1,1.19,1.2Z" transform="translate(-36.44 -90.13)"/><path class="cls-2" d="M160.76,99.52a1.2,1.2,0,0,1-1.19,1.19h-4a1.2,1.2,0,0,1-1.19-1.19h0a1.2,1.2,0,0,1,1.19-1.2h4a1.2,1.2,0,0,1,1.19,1.2Z" transform="translate(-36.44 -90.13)"/><path class="cls-2" d="M157.13,200.25a1.19,1.19,0,0,1-1.19,1.19h-4a1.19,1.19,0,0,1-1.19-1.19h0a1.19,1.19,0,0,1,1.19-1.19h4a1.19,1.19,0,0,1,1.19,1.19Z" transform="translate(-36.44 -90.13)"/><path class="cls-10" d="M154.39,108.79c-1.83-5.44-5.28-15.09-12.36-15A1.23,1.23,0,0,0,140.82,95c-.17,2.59.83,4.93,1.59,7.36.09.3.16.6.23.9-1.87-3.32-4.33-6.19-8-7.63a1.22,1.22,0,0,0-1.52.86,12.83,12.83,0,0,0,0,4,22.61,22.61,0,0,0-3.32-3.47,1.25,1.25,0,0,0-2.08.55c-.65,3.3.16,6.45.57,9.73.13,1.07.22,2.15.3,3.24-1.06-2.4-2.32-4.74-3.67-7.12-1.85-3.26-4.24-8.53-8.69-8.36a1.27,1.27,0,0,0-1.26,1.25c-.19,7.16,2,13.92,4,20.72a87.19,87.19,0,0,1,3.31,18.48,1,1,0,0,0-.9,1.14,27.12,27.12,0,0,0,.32,3.48,1.14,1.14,0,0,0,.12.34c.57,4.35,1.73,8.59,2.62,12.9,1.22,5.91-.58,11.79-.58,17.73a1,1,0,0,0,1.24.95c3.33-.7,3.07-3.78,3.75-6.43.72,1.07,1.18,2.23,2.5,3a1,1,0,0,0,1.5-.61,17.89,17.89,0,0,0,.4-1.76,5.51,5.51,0,0,0,2.47,2.26.91.91,0,0,0,1.34-.77c0-.49.07-1,.1-1.49l.06.13a.9.9,0,0,0,1.62-.22c1-2.79.62-5.68.28-8.57a57.91,57.91,0,0,1-.32-7.33c1.12,5.11,2.24,10.23,5.91,14.16a1.08,1.08,0,0,0,1.79-.48c.23-.73.41-1.48.57-2.22a7.25,7.25,0,0,0,2.37,2.9A1.12,1.12,0,0,0,151,164c.38-1.08.66-2.17.93-3.27l.4.27a1.06,1.06,0,0,0,1.46-.39c1.91-4.4,2.32-8.88,2.39-13.63a75.92,75.92,0,0,1,.54-10.22c.1-.48.21-1,.31-1.45.05-.17.1-.31.14-.45.32.84.6,1.53,1,2.36A1,1,0,0,0,160,137C161.54,127.39,157.43,117.8,154.39,108.79Z" transform="translate(-36.44 -90.13)"/><path class="cls-11" d="M87,102.86a1.13,1.13,0,0,0-2,.27c-1.42,7.7-1.24,15.78-4,23.14-1.63-9.76.28-19.86-2.36-29.52a1.26,1.26,0,0,0-2.42,0c-2.55,6.11-3.31,12.67-4.41,19.16.18-5.6.34-11.42-3.88-14.76a1.33,1.33,0,0,0-2,.26c-3.11,4.7-10.79,12.62-13,36.69-1.06,11.5,1.29,39.58,6.53,41.82A1.26,1.26,0,0,0,61,179c.14-1,.22-1.91.28-2.87a13,13,0,0,0,4,7,1.16,1.16,0,0,0,1.91-.5c4.19-12.21,1.69-25.32,3.26-37.93,2.41,11.22-.16,23.22,3.63,34.3a1.12,1.12,0,0,0,2.15,0c1.61-5.43,2.54-11,3.74-16.52a15.56,15.56,0,0,0,1,5.17,1.06,1.06,0,0,0,2,0C89.89,147.87,98.29,122.57,87,102.86Z" transform="translate(-36.44 -90.13)"/><path class="cls-12" d="M80.6,145.26a5.67,5.67,0,1,1-2-7.76A5.66,5.66,0,0,1,80.6,145.26Z" transform="translate(-36.44 -90.13)"/><path class="cls-12" d="M36.69,204.88a1.81,1.81,0,0,0,.64,2.48h0a1.81,1.81,0,0,0,2.48-.64l35.82-60.63a1.81,1.81,0,0,0-.64-2.48h0a1.81,1.81,0,0,0-2.48.63Z" transform="translate(-36.44 -90.13)"/></g></g></svg>